<?xml version="1.0" encoding="UTF-8"?>
<svg width="293.69mm" height="43.947mm" version="1.1" viewBox="0 0 293.69 43.947" xmlns="http://www.w3.org/2000/svg" xmlns:cc="http://creativecommons.org/ns#" xmlns:dc="http://purl.org/dc/elements/1.1/" xmlns:rdf="http://www.w3.org/1999/02/22-rdf-syntax-ns#">
 <metadata>
  <rdf:RDF>
   <cc:Work rdf:about="">
    <dc:format>image/svg+xml</dc:format>
    <dc:type rdf:resource="http://purl.org/dc/dcmitype/StillImage"/>
    <dc:title/>
   </cc:Work>
  </rdf:RDF>
 </metadata>
 <g transform="translate(36.044 -87.813)">
  <path d="m-21.444 131.28c-6.5826-1.3044-9.9791-3.7244-12.388-8.8267-2.3988-5.0804-2.9232-14.591-1.1953-21.681 2.3026-9.4473 7.9022-12.768 21.698-12.867 6.5254-0.0468 8.6861 0.32042 10.213 1.7358 1.546 1.4327 1.6169 4.0926 0.15871 5.9465l-0.72189 0.91773-7.8237 2e-3c-8.7245 2e-3 -10.117 0.23068-11.712 1.9223-1.6299 1.7282-1.9913 3.3071-2.1872 9.5542-0.20122 6.4188 0.25779 9.1707 1.9396 11.628 2.4663 3.6043 9.7434 4.5018 12.259 1.5119 0.65968-0.78399 0.87061-1.439 0.86475-2.6855-0.01009-2.1436-0.89427-3.9976-3.0946-6.4889-0.98031-1.1099-1.886-2.3446-2.0127-2.7437-0.35582-1.1211 0.88007-2.8988 2.6537-3.8171 2.7276-1.4122 6.5333-0.5257 9.0569 2.1098 3.9284 4.1027 4.8472 13.572 1.8438 19.002-1.072 1.9384-3.3371 3.686-5.7208 4.4138-2.5779 0.78715-10.628 0.99952-13.831 0.36487zm34.925 0.12314c-6.8133-0.6863-9.516-2.8402-10.81-8.6154-0.65978-2.9444-0.66901-22.344-0.01217-25.589 0.65862-3.2541 2.0086-5.5753 4.0277-6.9253 2.1663-1.4484 3.8023-1.7912 10.858-2.2756 6.4158-0.44041 12.257-0.0926 14.552 0.86666 2.8862 1.2059 3.6722 5.4032 1.3462 7.1891-0.4042 0.31034-2.9783 0.43287-9.2639 0.44098l-8.7042 0.0112-1.0981 0.92397c-2.2302 1.8766-2.7447 4.4106-1.3238 6.5204l0.80727 1.1987 9.1587 0.17639c9.8729 0.19014 10.323 0.27433 11.272 2.1096 1.1912 2.3035 0.28743 5.3039-2.0216 6.7118-1.0603 0.64646-1.7898 0.70111-9.375 0.70233-4.9641 7e-4 -8.4944 0.14533-8.904 0.36455-0.92618 0.49568-1.7446 2.1804-1.743 3.588 0.0018 1.4848 1.1474 3.3748 2.3149 3.8187 0.49793 0.18931 4.7719 0.34399 9.5052 0.34399 8.4121 0 8.6206 0.0174 9.5238 0.7943 0.61288 0.52718 0.98844 1.279 1.1168 2.2356 0.38535 2.873-1.4564 4.6215-5.6928 5.4046-2.3436 0.43323-11.252 0.43579-15.534 4e-3zm36.906 7e-3c-2.5953-0.46402-5.0606-1.883-6.3129-3.6335-1.6239-2.27-3.5238-6.2803-4.9272-10.4-1.1921-3.4995-1.2792-4.0424-1.2544-7.8176 0.03355-5.1086 0.75779-8.5494 2.5758-12.237 3.1748-6.4397 9.1892-9.3634 19.227-9.3465 7.4313 0.0126 11.953 1.5534 15.775 5.3762 2.5027 2.5027 4.2292 5.9698 5.0627 10.167 0.74376 3.745 0.54813 12.839-0.34622 16.095-1.7138 6.2382-5.2782 9.8429-11.174 11.3-2.7192 0.67219-15.707 1.0186-18.626 0.49671zm12.73-8.8334c3.5143-0.729 5.9902-2.7121 7.4405-5.9596 1.0982-2.4591 1.2848-9.6835 0.3206-12.417-0.98766-2.7999-2.2815-4.3401-4.604-5.4806-1.7626-0.86558-2.4685-0.99323-6.1005-1.1031-6.7882-0.20532-9.6991 1.1288-11.286 5.1726-0.6769 1.7251-0.78757 2.6764-0.78757 6.7697 0 4.1257 0.10782 5.0376 0.80636 6.8199 0.91011 2.3221 2.4309 4.2297 4.0496 5.0794 2.6106 1.3705 6.7495 1.8261 10.161 1.1184zm33.972 8.7037c-6.414-1.271-9.7634-3.5467-12.135-8.2455-1.9344-3.8321-2.3152-5.9463-2.3-12.77 0.01542-6.9356 0.50687-9.9367 2.2303-13.62 2.9109-6.2205 8.5703-8.6545 20.319-8.7388 6.5254-0.0468 8.6861 0.32042 10.213 1.7358 1.546 1.4327 1.6169 4.0926 0.15871 5.9465l-0.72189 0.91773-7.8237 2e-3c-4.303 1e-3 -8.4141 0.16593-9.1357 0.36634-1.8819 0.52266-3.2956 1.8597-3.9986 3.7817-0.80623 2.2042-1.1252 11.242-0.51689 14.646 0.81066 4.537 3.4924 7.1009 7.9035 7.5561 4.2128 0.4348 6.9268-1.3004 6.9121-4.4192-0.0103-2.1811-0.89587-3.9889-3.3007-6.7376-1.0908-1.2469-1.9832-2.4851-1.9832-2.7517 0-0.9205 1.0514-2.5134 2.1995-3.3323 1.5446-1.1017 5.0694-1.1176 7.1491-0.0323 4.7499 2.4789 7.1067 9.3171 5.799 16.826-0.74671 4.2879-3.3022 7.3326-7.1375 8.5037-2.5779 0.78715-10.628 0.99952-13.831 0.36487zm35.789-0.1231c-5.6162-1.5086-10.602-6.7057-12.156-12.671-0.41704-1.6011-0.52623-4.5352-0.52623-14.14 0-7.5512 0.13543-12.373 0.35927-12.791 0.56958-1.0643 3.2533-2.4573 4.7341-2.4573 1.6611 0 3.47 1.6657 4.0405 3.7207 0.23969 0.86332 0.38793 5.2762 0.38914 11.584 1e-3 6.8463 0.13958 10.649 0.42135 11.589 0.60203 2.0094 3.1081 4.6242 5.6486 5.8937l2.1586 1.0787h14.288l0.89927 1.0687c2.0745 2.4654 1.4737 5.2998-1.4227 6.712-1.603 0.78151-2.1582 0.83831-9.1153 0.93253-6.1845 0.0837-7.7901-2e-3 -9.7194-0.52044zm29.365-0.0879c-1.874-1.1425-2.2839-2.6025-2.5235-8.9868l-0.21179-5.6444-1.8407-3.8374c-1.0124-2.1106-3.6784-6.9991-5.9244-10.863-2.246-3.8643-4.489-7.9112-4.9842-8.9931-0.85934-1.877-0.8749-2.0208-0.34015-3.1421 0.42714-0.89573 0.8992-1.2664 1.9855-1.5589 3.3914-0.91322 6.1078 1.0824 9.3626 6.8784 3.9679 7.0658 5.7666 8.2619 8.351 5.5533 0.69422-0.7276 2.5329-3.2344 4.086-5.5705 3.9566-5.9516 5.8604-7.5147 8.3242-6.8344 1.161 0.32056 3.0513 2.0739 3.0513 2.8302 0 0.76788-1.259 3.2037-5.4102 10.468-6.9515 12.164-7.2417 12.86-8.1719 19.614-1.3854 10.059-1.2266 9.3967-2.4296 10.13-1.3873 0.84598-1.8772 0.83973-3.3241-0.0424zm88.418 0.17381c-1.4418-0.78293-2.2737-3.4861-2.5091-8.1525-0.15156-3.0056-0.37158-4.2707-0.93483-5.3747-1.1471-2.2485-2.0546-2.6549-6.2771-2.8112-4.0356-0.14939-5.8725 0.30123-7.5415 1.8501-0.85464 0.79313-0.93828 1.1473-1.1737 4.9704-0.30025 4.8757-0.89813 7.13-2.2848 8.6143-0.88202 0.94421-1.2625 1.0916-2.8184 1.0916-1.9537 0-2.9352-0.64263-3.5827-2.3458-0.19558-0.51443-0.44312-8.5086-0.57235-18.482-0.20965-16.186-0.1791-17.703 0.38651-19.184 1.0308-2.6992 2.7981-3.5623 5.4217-2.6477 1.9316 0.67336 2.3066 1.721 2.547 7.1163 0.20648 4.6351 0.26194 4.9146 1.2538 6.3168 1.8885 2.67 2.4976 2.9299 7.1753 3.0611 4.0357 0.11319 4.178 0.0914 5.2418-0.80379 1.4083-1.185 2.1015-3.1258 2.5265-7.0737 0.38929-3.6163 1.4487-6.9967 2.5653-8.1853 0.62075-0.66076 1.1312-0.81057 2.762-0.81057 2.4766 0 2.9441 0.448 3.6946 3.5407 1.2965 5.3423 1.5012 26.278 0.33048 33.786-0.69472 4.4558-1.1862 5.5484-2.6251 5.8362-1.6774 0.33547-2.529 0.26128-3.5854-0.31236zm-62.668-0.88105c-2.0234-1.2336-2.6785-3.2943-2.6883-8.4559-0.0173-9.1851 2.3851-14.062 7.9157-16.069 1.0892-0.39528 3.4203-0.64949 7.4264-0.80987 4.7537-0.1903 6.0187-0.3516 6.8067-0.8679 1.9826-1.2991 2.0772-4.1048 0.19173-5.6913l-1.0734-0.90321-7.4694-4e-3c-9.4306-5e-3 -9.8103-0.0685-11.802-1.9766-1.488-1.4257-1.5734-1.6082-1.3905-2.9716 0.10717-0.79895 0.48609-1.7784 0.84211-2.1765 1.797-2.0098 7.2654-2.8823 15.973-2.5486 8.2533 0.3163 11.743 1.4974 14.12 4.7792 1.4242 1.9661 2.0472 4.196 2.3327 8.3503 0.40707 5.9232-0.82646 9.1935-4.2173 11.181-2.2252 1.3041-3.2893 1.5626-8.864 2.1532-7.2471 0.76788-9.7758 1.6674-11.597 4.1249-0.62487 0.84344-0.74485 1.625-0.86642 5.6444-0.0776 2.566-0.29457 4.9567-0.48207 5.3127-0.36357 0.69016-2.3177 1.6467-3.3596 1.6445-0.34576-7.1e-4 -1.1554-0.32246-1.7992-0.71497z" stroke-width=".35278"/>
 </g>
</svg>
